<svg width="16" height="16" viewBox="0 0 16 16" fill="none" xmlns="http://www.w3.org/2000/svg">
<path d="M0.75 3C0.33579 3 0 3.33579 0 3.75C0 4.16421 0.33579 4.5 0.75 4.5V3ZM15.25 4.5C15.6642 4.5 16 4.16421 16 3.75C16 3.33579 15.6642 3 15.25 3V4.5ZM0.75 4.5H15.25V3H0.75V4.5Z" fill="currentColor" fill-opacity="0.85"/>
<path d="M2.75 7C2.33579 7 2 7.3358 2 7.75C2 8.1642 2.33579 8.5 2.75 8.5V7ZM13.25 8.5C13.6642 8.5 14 8.1642 14 7.75C14 7.3358 13.6642 7 13.25 7V8.5ZM2.75 8.5H13.25V7H2.75V8.5Z" fill="currentColor" fill-opacity="0.85"/>
<path d="M4.75 11C4.33579 11 4 11.3358 4 11.75C4 12.1642 4.33579 12.5 4.75 12.5V11ZM11.25 12.5C11.6642 12.5 12 12.1642 12 11.75C12 11.3358 11.6642 11 11.25 11V12.5ZM4.75 12.5H11.25V11H4.75V12.5Z" fill="currentColor" fill-opacity="0.85"/>
</svg>
