<svg width="34" height="40" viewBox="0 0 34 40" fill="none" xmlns="http://www.w3.org/2000/svg">
<path d="M16.7758 40C17.199 40 17.7822 39.8139 18.2877 39.562C29.5104 33.9562 33.5517 30.7146 33.5517 23.8357V10.1146C33.5517 7.03701 32.6275 5.70533 29.8811 4.52702C28.2064 3.81597 21.5077 1.65451 20.001 1.17704C19.0063 0.873337 17.7486 0.685303 16.7758 0.685303C15.8031 0.685303 14.539 0.90289 13.5507 1.17704C12.0448 1.59038 5.34519 3.82233 3.66972 4.52702C0.924159 5.69809 0 7.03701 0 10.1146V23.8357C0 30.7146 4.04386 33.9446 15.264 39.562C15.7694 39.8139 16.3526 40 16.7758 40ZM16.7758 34.252C16.6029 34.252 16.4443 34.2074 15.9444 33.9035C7.61032 28.71 5.30541 27.7226 5.30541 23.1081V10.7647C5.30541 10.0195 5.4932 9.69452 6.04024 9.46547C8.58847 8.42984 13.554 6.80718 15.0408 6.27319C15.8644 6.02049 16.3104 5.90849 16.7758 5.90849C17.2413 5.90849 17.6855 6.02137 18.51 6.27319C19.9904 6.80718 24.9369 8.46794 27.5051 9.46547C28.0585 9.68814 28.2399 10.0195 28.2399 10.7647V23.1081C28.2399 27.8576 25.5282 29.2473 17.6009 33.9035C17.1073 34.1904 16.9487 34.252 16.7758 34.252Z" fill="url(#paint0_linear_2443_274)" fill-opacity="0.85"/>
<defs>
<linearGradient id="paint0_linear_2443_274" x1="11" y1="-0.5" x2="21" y2="37" gradientUnits="userSpaceOnUse">
<stop stop-color="#009441"/>
<stop offset="1" stop-color="#2E3D42"/>
</linearGradient>
</defs>
</svg>
